<svg width="512" height="512" viewBox="0 0 512 512" fill="none" xmlns="http://www.w3.org/2000/svg">
    <defs>
        <linearGradient id="g" x1="0" y1="0" x2="512" y2="512" gradientUnits="userSpaceOnUse">
            <stop offset="0%" stop-color="#3DD6D0"/>
            <stop offset="100%" stop-color="#22B8B8"/>
        </linearGradient>
    </defs>
    <rect width="512" height="512" rx="96" fill="url(#g)"/>
    <g transform="translate(64, 64) scale(6)">
        <path d="M32 10L8 30H14V52H50V30H56L32 10Z" stroke="white" stroke-width="3" stroke-linecap="round" stroke-linejoin="round" fill="none"/>
        <circle cx="25" cy="32" r="4.5" fill="white" />
        <path d="M18 28L25 25L32 28L25 31Z" fill="white"/>
        <line x1="25" y1="28" x2="25" y2="25" stroke="white" stroke-width="1.5" />
        <path d="M20 52C20 45 21 40 25 40C29 40 30 45 30 52" fill="white" fill-opacity="0.9"/>
        <circle cx="39" cy="34" r="4" fill="white" fill-opacity="0.85" />
        <path d="M34 52C34 46 35 42 39 42C43 42 44 46 44 52" fill="white" fill-opacity="0.75"/>
    </g>
</svg>
